<svg width="1376" height="478" viewBox="0 0 1376 478" fill="none" xmlns="http://www.w3.org/2000/svg">
<path d="M603.322 463L602.938 460.12C602.938 460.056 602.906 459.672 602.842 458.968C602.778 458.264 602.746 457.208 602.746 455.8C602.746 452.728 603.002 450.072 603.514 447.832C604.41 443.352 606.074 439.704 608.506 436.888C611.002 434.072 614.138 432.216 617.914 431.32C621.434 430.424 624.538 428.984 627.226 427C629.978 425.016 631.354 422.168 631.354 418.456C631.354 416.152 630.778 414.04 629.626 412.12C628.474 410.136 626.938 408.568 625.018 407.416C623.098 406.264 620.986 405.688 618.682 405.688H605.05V399.16H618.682C622.202 399.16 625.434 400.024 628.378 401.752C631.322 403.48 633.658 405.816 635.386 408.76C637.114 411.704 637.978 414.936 637.978 418.456C637.978 423.576 636.026 427.896 632.122 431.416C628.986 434.296 624.762 436.376 619.45 437.656C614.458 438.936 611.29 442.712 609.946 448.984C609.626 450.648 609.466 452.248 609.466 453.784C609.466 455.32 609.466 456.216 609.466 456.472H634.714V463H603.322ZM664.212 398.68C660.884 398.68 657.78 399.512 654.9 401.176C652.084 402.84 649.844 405.112 648.18 407.992C646.516 410.808 645.684 413.88 645.684 417.208V444.952C645.684 448.28 646.516 451.384 648.18 454.264C649.844 457.08 652.084 459.32 654.9 460.984C657.78 462.648 660.884 463.48 664.212 463.48H667.86C671.252 463.48 674.356 462.648 677.172 460.984C679.988 459.32 682.228 457.08 683.892 454.264C685.556 451.384 686.388 448.28 686.388 444.952V417.208C686.388 413.88 685.556 410.808 683.892 407.992C682.228 405.112 679.988 402.84 677.172 401.176C674.356 399.512 671.252 398.68 667.86 398.68H664.212ZM667.86 405.208C671.188 405.208 674.036 406.392 676.404 408.76C678.708 411.192 679.86 414.008 679.86 417.208V444.952C679.86 448.152 678.708 450.968 676.404 453.4C674.036 455.768 671.188 456.952 667.86 456.952H664.212C660.948 456.952 658.132 455.768 655.764 453.4C653.396 451.032 652.212 448.216 652.212 444.952V417.208C652.212 413.944 653.396 411.128 655.764 408.76C658.132 406.392 660.948 405.208 664.212 405.208H667.86ZM694.635 463L694.251 460.12C694.251 460.056 694.219 459.672 694.155 458.968C694.091 458.264 694.059 457.208 694.059 455.8C694.059 452.728 694.315 450.072 694.827 447.832C695.723 443.352 697.387 439.704 699.819 436.888C702.315 434.072 705.451 432.216 709.227 431.32C712.747 430.424 715.851 428.984 718.539 427C721.291 425.016 722.667 422.168 722.667 418.456C722.667 416.152 722.091 414.04 720.939 412.12C719.787 410.136 718.251 408.568 716.331 407.416C714.411 406.264 712.299 405.688 709.995 405.688H696.363V399.16H709.995C713.515 399.16 716.747 400.024 719.691 401.752C722.635 403.48 724.971 405.816 726.699 408.76C728.427 411.704 729.291 414.936 729.291 418.456C729.291 423.576 727.339 427.896 723.435 431.416C720.299 434.296 716.075 436.376 710.763 437.656C705.771 438.936 702.603 442.712 701.259 448.984C700.939 450.648 700.779 452.248 700.779 453.784C700.779 455.32 700.779 456.216 700.779 456.472H726.027V463H694.635ZM737.572 463L737.188 460.12C737.188 460.056 737.156 459.672 737.092 458.968C737.028 458.264 736.996 457.208 736.996 455.8C736.996 452.728 737.252 450.072 737.764 447.832C738.66 443.352 740.324 439.704 742.756 436.888C745.252 434.072 748.388 432.216 752.164 431.32C755.684 430.424 758.788 428.984 761.476 427C764.228 425.016 765.604 422.168 765.604 418.456C765.604 416.152 765.028 414.04 763.876 412.12C762.724 410.136 761.188 408.568 759.268 407.416C757.348 406.264 755.236 405.688 752.932 405.688H739.3V399.16H752.932C756.452 399.16 759.684 400.024 762.628 401.752C765.572 403.48 767.908 405.816 769.636 408.76C771.364 411.704 772.228 414.936 772.228 418.456C772.228 423.576 770.276 427.896 766.372 431.416C763.236 434.296 759.012 436.376 753.7 437.656C748.708 438.936 745.54 442.712 744.196 448.984C743.876 450.648 743.716 452.248 743.716 453.784C743.716 455.32 743.716 456.216 743.716 456.472H768.964V463H737.572Z" fill="#FFDF36"/>
<path d="M189.943 337.9L160.035 252.76H72.9675L42.3944 337.9H26.1108L104.205 117.068H128.132L206.227 337.9H189.943ZM116.169 129.373L77.2877 239.124L155.05 239.456L116.169 129.373Z" fill="#FFDF36"/>
<path d="M251.777 254.755V337.567H236.159V116.402H297.637C307.164 116.402 316.247 118.176 324.887 121.724C333.527 125.271 341.281 130.26 348.149 136.69C354.796 143.12 359.891 150.547 363.436 158.973C367.202 167.398 369.085 176.267 369.085 185.579C369.085 194.891 367.202 203.871 363.436 212.518C359.891 220.943 354.796 228.26 348.149 234.468C341.281 240.898 333.527 245.886 324.887 249.434C316.247 252.981 307.164 254.755 297.637 254.755H251.777ZM251.777 131.701V240.122H297.637C312.702 240.122 325.884 234.8 337.183 224.158C342.278 219.28 346.266 213.515 349.146 206.864C352.026 200.212 353.466 193.117 353.466 185.579C353.466 178.04 352.026 171.056 349.146 164.626C346.266 157.975 342.278 152.21 337.183 147.332C326.106 136.911 312.924 131.701 297.637 131.701H251.777Z" fill="#FFDF36"/>
<path d="M506.41 339.23C491.345 339.23 477.055 336.458 463.541 330.915C450.249 325.151 438.507 317.058 428.316 306.637C417.903 296.438 409.817 284.687 404.057 271.384C398.518 257.859 395.749 243.558 395.749 228.481C395.749 213.404 398.629 199.104 404.389 185.579C410.149 172.054 418.125 160.192 428.316 149.993C438.507 139.794 450.249 131.812 463.541 126.047C477.055 120.283 491.345 117.4 506.41 117.4C521.475 117.4 535.765 120.283 549.279 126.047C562.793 131.812 574.646 139.794 584.837 149.993C595.028 160.192 603.004 172.054 608.764 185.579C614.524 199.104 617.404 213.404 617.404 228.481C617.404 243.558 614.524 257.859 608.764 271.384C603.004 284.687 595.028 296.438 584.837 306.637C574.646 316.836 562.793 324.818 549.279 330.583C535.765 336.348 521.475 339.23 506.41 339.23ZM506.41 132.699C493.339 132.699 480.932 135.138 469.191 140.016C457.67 144.893 447.479 151.767 438.617 160.635C429.756 169.504 422.888 179.814 418.014 191.565C413.14 203.095 410.703 215.4 410.703 228.481C410.703 241.563 413.14 253.979 418.014 265.73C422.888 277.26 429.756 287.459 438.617 296.327C447.479 305.196 457.67 312.069 469.191 316.947C480.932 321.825 493.339 324.264 506.41 324.264C519.481 324.264 531.777 321.825 543.297 316.947C555.039 312.069 565.341 305.196 574.203 296.327C583.065 287.459 589.932 277.26 594.806 265.73C599.68 253.979 602.117 241.563 602.117 228.481C602.117 215.4 599.68 203.095 594.806 191.565C589.932 179.814 583.065 169.504 574.203 160.635C565.341 151.767 555.039 144.893 543.297 140.016C531.777 135.138 519.481 132.699 506.41 132.699Z" fill="#FFDF36"/>
<path d="M771.114 174.936C769.784 166.733 767.015 159.638 762.806 153.651C752.393 138.574 735.999 131.036 713.623 131.036C694.57 131.036 680.723 135.359 672.083 144.006C664.107 152.21 660.12 163.185 660.12 176.932C660.12 192.452 665.326 203.76 675.739 210.855C683.05 215.733 694.238 218.837 709.303 220.167C722.817 221.276 734.005 223.049 742.867 225.488C751.728 227.705 759.261 230.699 765.464 234.468C780.751 244.002 788.394 258.746 788.394 278.701C788.394 286.461 786.732 293.888 783.409 300.983C780.308 308.078 775.877 314.397 770.117 319.94C756.381 333.022 737.771 339.563 714.287 339.563C690.36 339.563 671.64 333.133 658.126 320.273C647.27 310.739 640.402 298.101 637.522 282.359H653.141C655.578 293.002 660.12 301.538 666.766 307.968C673.412 314.397 681.388 318.943 690.693 321.603C698.004 323.599 705.426 324.597 712.958 324.597C723.149 324.597 732.676 323.044 741.537 319.94C754.608 315.284 763.803 307.413 769.12 296.327C771.557 290.784 772.775 284.909 772.775 278.701C772.775 265.176 768.455 255.309 759.815 249.101C750.067 242.006 732.786 237.35 707.973 235.133C665.658 231.807 644.501 212.407 644.501 176.932C644.501 168.285 645.941 160.192 648.821 152.654C651.923 145.115 656.132 138.685 661.449 133.364C673.634 121.613 690.914 115.737 713.29 115.737C734.78 115.737 752.171 121.613 765.464 133.364C776.763 144.006 783.852 157.864 786.732 174.936H771.114Z" fill="#FFDF36"/>
<path d="M927.362 338.897C912.076 338.897 897.564 336.015 883.829 330.25C870.314 324.486 858.351 316.393 847.938 305.972C837.526 295.773 829.439 283.911 823.679 270.386C817.919 256.64 815.039 242.228 815.039 227.151C815.039 212.074 817.919 197.773 823.679 184.248C829.439 170.502 837.526 158.418 847.938 147.997C858.351 137.798 870.425 129.816 884.161 124.052C897.897 118.287 912.297 115.405 927.362 115.405C943.313 115.405 958.378 118.509 972.557 124.717C986.736 130.703 999.143 139.572 1009.78 151.323L998.146 160.968C988.841 151.212 978.096 143.785 965.911 138.685C953.726 133.364 940.876 130.703 927.362 130.703C914.291 130.703 901.774 133.253 889.81 138.353C878.069 143.23 867.767 150.104 858.905 158.973C849.822 167.841 842.732 178.151 837.637 189.902C832.763 201.653 830.326 214.07 830.326 227.151C830.326 240.232 832.763 252.649 837.637 264.4C842.732 276.151 849.822 286.461 858.905 295.33C867.767 304.198 878.069 311.183 889.81 316.282C901.774 321.16 914.291 323.599 927.362 323.599C940.876 323.599 953.726 321.049 965.911 315.949C978.096 310.628 988.841 303.09 998.146 293.334L1009.44 302.979C998.81 314.508 986.404 323.377 972.225 329.585C958.046 335.793 943.092 338.897 927.362 338.897Z" fill="#FFDF36"/>
<path d="M1193.71 337.9L1163.8 252.76H1076.73L1046.16 337.9H1029.88L1107.97 117.068H1131.9L1209.99 337.9H1193.71ZM1119.93 129.373L1081.05 239.124L1158.82 239.456L1119.93 129.373Z" fill="#FFDF36"/>
<path d="M1334.13 337.567L1257.69 255.088H1249.05V337.567H1233.43V116.735H1289.6C1299.12 116.735 1308.09 118.509 1316.51 122.056C1325.15 125.604 1332.8 130.592 1339.44 137.022C1346.09 143.23 1351.18 150.658 1354.73 159.305C1358.5 167.73 1360.38 176.599 1360.38 185.911C1360.38 195.224 1358.5 204.203 1354.73 212.85C1351.18 221.276 1346.09 228.592 1339.44 234.8C1332.8 241.23 1325.15 246.219 1316.51 249.766C1308.09 253.314 1299.12 255.088 1289.6 255.088H1278.3L1354.73 337.567H1334.13ZM1249.05 131.701V240.122H1289.6C1296.91 240.122 1304 238.68 1310.86 235.798C1317.73 232.916 1323.71 229.036 1328.81 224.158C1333.9 219.28 1337.89 213.515 1340.77 206.864C1343.65 200.212 1345.09 193.228 1345.09 185.911C1345.09 178.373 1343.65 171.389 1340.77 164.959C1337.89 158.307 1333.9 152.543 1328.81 147.665C1323.49 142.787 1317.4 138.907 1310.53 136.025C1303.89 133.142 1296.91 131.701 1289.6 131.701H1249.05Z" fill="#FFDF36"/>
<path d="M630.591 5.48754V82.9367H624.858V5.48754H602.178V0H653.271V5.48754H630.591Z" fill="#FFDF36"/>
<path d="M714.489 82.9367V44.2745H670.249V82.9367H664.516V0H670.249V38.7869H714.489V0H719.972V82.9367H714.489Z" fill="#FFDF36"/>
<path d="M732.424 82.9367V0H777.785V5.61226H738.156V38.7869H764.825V44.2745H738.156V77.3245H777.785V82.9367H732.424Z" fill="#FFDF36"/>
<path d="M0 43.9627L588.045 41.7125V46.2129L0 43.9627Z" fill="#FFDF36"/>
<path d="M1376 43.9625L787.955 46.2127V41.7124L1376 43.9625Z" fill="#FFDF36"/>
<path d="M1362.51 433.333L787.707 435.534V431.132L1362.51 433.333Z" fill="#FFDF36"/>
<path d="M17.4971 433.333L592.3 431.132V435.534L17.4971 433.333Z" fill="#FFDF36"/>
</svg>
