<svg xmlns="http://www.w3.org/2000/svg" viewBox="0 0 505.29 505.29"><defs><style>.cls-1{fill:#ffdf36;}</style></defs><title>Asset 7</title><g id="Layer_2" data-name="Layer 2"><g id="Layer_1-2" data-name="Layer 1"><path class="cls-1" d="M505.29,505.29H0V0H505.29ZM389.37,38.18H116.27V232h273.1ZM115.92,467.11H389V273.25H115.92ZM75.74,76.25V38.16H38V76.25ZM467.42,38.38h-38V76h38ZM38,115.72v38.13H75.78V115.72Zm391.82.22v38.13h37.43V115.94ZM37.84,232.28H76V194.42H37.84Zm430-37.78H429.74v37.7h38.05ZM76.42,272.9H38v37.39H76.42Zm390.91,38.43V273.2H429.51v38.13ZM76.38,351.53H38.25V389H76.38ZM429,388.71h38.09V351H429ZM76.12,467.81V429.68H38.3v38.13Zm391.35-38.26H429.38V467.3h38.09Z"/><path class="cls-1" d="M221.22,192.25l-18.86,57.1H178.12L239.8,67.81h28.28L330,249.35H305l-19.4-57.1Zm59.52-18.32L263,121.68c-4-11.85-6.74-22.63-9.43-33.13H253c-2.69,10.77-5.66,21.82-9.16,32.86l-17.77,52.52Z"/></g></g></svg>